# xmcd CD database file
#
# Track frame offsets:
#	150
#	28760
#	55001
#	63303
#	68686
#	83836
#	88258
#	94769
#	112250
#	127474
#	142888
#	161154
#
# Disc length: 2342 seconds
#
# Revision: 0
# Processed by: cddbd v1.5.2PL0 Copyright (c) Steve Scherf et al.
# Submitted via: CDex 1.70beta2
#
DISCID=ac09240c
DTITLE=Alain Vankenhove - Beyond Mountains
DYEAR=2010
DGENRE=Jazz
TTITLE0=Sentiment d'Elles
TTITLE1=NYC
TTITLE2=Under Snow
TTITLE3=Fenêtre sur oceán
TTITLE4=Histoire de bulles d'O
TTITLE5=Lettre à...
TTITLE6=News from the Tibet
TTITLE7=Ideal City
TTITLE8=Abus de pouvoir
TTITLE9=Aux oubliés
TTITLE10=Chance !
TTITLE11=Jeu d'enfance
EXTD=YEAR: 2010
EXTT0=
EXTT1=
EXTT2=
EXTT3=
EXTT4=
EXTT5=
EXTT6=
EXTT7=
EXTT8=
EXTT9=
EXTT10=
EXTT11=
PLAYORDER=
